<?xml version="1.0" encoding="utf-8"?>
<!-- Generator: Adobe Illustrator 21.1.0, SVG Export Plug-In . SVG Version: 6.00 Build 0)  -->
<svg version="1.1" id="Layer_1" xmlns="http://www.w3.org/2000/svg" xmlns:xlink="http://www.w3.org/1999/xlink" x="0px" y="0px"
	 viewBox="0 0 96.8 96.8" style="enable-background:new 0 0 96.8 96.8;" xml:space="preserve">
<style type="text/css">
	.st0{fill:#2D2D2D;}
</style>
<path class="st0" d="M56.7,48.5l38.2-38.2c2.2-2.2,2.2-5.7,0-7.8s-5.7-2.2-7.8,0L48.8,40.7L10.6,2.4c-2.2-2.2-5.7-2.2-7.8,0
	s-2.2,5.7,0,7.8L41,48.5L2.8,86.7c-2.2,2.2-2.2,5.7,0,7.8s5.7,2.2,7.8,0l38.2-38.2l38.2,38.2c1.1,1.1,2.5,1.6,3.9,1.6
	s2.8-0.5,3.9-1.6c2.2-2.2,2.2-5.7,0-7.8L56.7,48.5z"/>
</svg>
